
			<svg xmlns="http://www.w3.org/2000/svg" viewBox="0 0 354.5584412271571 364.8528137423857" width="354.5584412271571" height="364.8528137423857">
				<path d="M 80,169.70562748477147 L 164.8528137423857,84.85281374238573 L 80,84.85281374238576 Z" fill="#BA55D3" stroke="#000" stroke-width="2" />
<path d="M 124.8528137423857,24.852813742385706 L 184.8528137423857,24.852813742385706 L 244.8528137423857,84.8528137423857 L 64.8528137423857,84.8528137423857 Z" fill="#00CED1" stroke="#000" stroke-width="2" />
<path d="M 24.852813742385706,184.8528137423857 L 24.852813742385706,124.8528137423857 L 84.8528137423857,64.8528137423857 L 84.8528137423857,244.8528137423857 Z" fill="#40E0D0" stroke="#000" stroke-width="2" />
<path d="M 244.8528137423857,224.8528137423857 L 244.8528137423857,344.8528137423857 L 184.8528137423857,284.8528137423857 L 184.8528137423857,164.8528137423857 Z" fill="#8000FF" stroke="#000" stroke-width="2" />
<path d="M 164.8528137423857,144.8528137423857 L 334.5584412271571,144.8528137423857 L 249.7056274847714,229.7056274847714 Z" fill="#BA55D3" stroke="#000" stroke-width="2" />
<path d="M 64.8528137423857,224.8528137423857 L 184.8528137423857,224.8528137423857 L 244.8528137423857,284.8528137423857 L 124.8528137423857,284.8528137423857 Z" fill="#00FF7F" stroke="#000" stroke-width="2" />
<path d="M 164.8528137423857,84.8528137423857 L 284.8528137423857,84.8528137423857 L 224.8528137423857,24.852813742385706 Z" fill="#8000FF" stroke="#000" stroke-width="2" />
<path d="M 20,204.8528137423857 L 104.8528137423857,289.7056274847714 L 104.8528137423857,204.8528137423857 Z" fill="#BA55D3" stroke="#000" stroke-width="2" />
<path d="M 104.8528137423857,20 L 20,104.8528137423857 L 104.8528137423857,104.8528137423857 Z" fill="#8000FF" stroke="#000" stroke-width="2" />

			</svg>
		